<?xml version="1.0" encoding="UTF-8" standalone="no"?><!-- Generator: Gravit.io --><svg xmlns="http://www.w3.org/2000/svg" xmlns:xlink="http://www.w3.org/1999/xlink" style="isolation:isolate" viewBox="223.865 161.499 52.269 177.001" width="52.269pt" height="177.001pt"><g><path d=" M 243.34 176.78 L 238.54 189.46 C 237.61 191.92 236.7 194.39 235.81 196.86 C 235.24 198.44 234.69 200.03 234.18 201.63 C 233.68 203.21 233.2 204.79 232.73 206.38 C 231.84 209.32 230.98 212.28 230.15 215.24 C 230 215.75 229.86 216.26 229.72 216.77 C 229.21 218.64 228.75 220.53 228.33 222.43 C 227.84 224.69 227.37 226.95 226.94 229.23 C 226.51 231.53 226.1 233.84 225.73 236.16 C 225.41 238.17 225.13 240.18 224.9 242.2 C 224.53 245.72 224.28 249.25 224.14 252.78 C 223.96 256.68 223.87 260.59 223.87 264.49 C 223.84 267.72 223.94 270.95 224.15 274.17 C 224.6 280.6 225.34 287.01 226.36 293.38 C 227.33 299.49 228.59 305.55 230.14 311.54 C 230.56 313.19 230.99 314.84 231.44 316.49 C 231.84 317.89 232.25 319.29 232.67 320.68 C 233.2 322.44 233.74 324.2 234.32 325.95 C 235.02 328.01 235.74 330.07 236.5 332.11 C 236.77 332.87 237.04 333.62 237.33 334.37 C 237.52 334.87 237.72 335.35 237.94 335.83 C 238.08 336.16 238.26 336.47 238.47 336.76 C 238.67 337.05 238.95 337.28 239.28 337.41 C 239.49 337.49 239.71 337.55 239.93 337.59 C 240.23 337.66 240.52 337.72 240.82 337.77 C 241.63 337.92 242.45 338.05 243.27 338.16 C 244.25 338.29 245.25 338.38 246.24 338.42 C 247.42 338.47 248.61 338.5 249.79 338.5 C 251.51 338.5 253.22 338.45 254.94 338.34 C 256.33 338.27 257.72 338.11 259.09 337.86 C 259.72 337.75 260.34 337.63 260.97 337.51 L 261.35 337.44 C 261.7 337.37 261.99 337.13 262.11 336.8 C 262.47 335.79 262.84 334.79 263.21 333.78 C 263.36 333.35 263.52 332.92 263.68 332.49 C 266.73 324.19 269.26 315.71 271.25 307.1 C 273.24 298.44 274.69 289.66 275.6 280.83 C 275.82 278.62 275.97 276.41 276.04 274.2 C 276.08 272.64 276.1 271.08 276.11 269.52 C 276.13 267.24 276.14 264.96 276.13 262.69 C 276.14 260.4 276.13 258.12 276.11 255.83 C 276.1 254.28 276.08 252.74 276.04 251.19 C 275.97 249.03 275.82 246.88 275.6 244.73 C 275 239.13 274.16 233.56 273.06 228.03 C 271.88 222.24 270.46 216.5 268.8 210.82 C 268.14 208.53 267.45 206.25 266.73 203.98 C 265.93 201.49 265.09 199.02 264.21 196.56 C 263.02 193.21 261.79 189.87 260.54 186.54 C 258.71 181.64 256.86 176.74 255 171.86 C 254.31 170.04 253.62 168.22 252.92 166.4 C 252.56 165.43 252.18 164.46 251.79 163.49 C 251.63 163.08 251.45 162.67 251.24 162.27 C 251.05 161.84 250.64 161.55 250.17 161.5 C 249.85 161.49 249.54 161.6 249.31 161.82 C 249.2 161.91 249.11 162.01 249.03 162.13 C 248.87 162.35 248.74 162.6 248.64 162.85 C 247.87 164.79 247.13 166.72 246.4 168.67 C 245.39 171.38 244.38 174.08 243.34 176.78 Z  M 236.5 280 C 241.152 261.272 250.028 250.609 249.79 251.19 C 249.72 251.399 242.734 264.196 239 280 C 235.221 295.991 234.692 314.99 234.32 315 C 233.815 315.023 233.541 291.912 236.5 280 Z  M 235.81 210.82 Q 239.056 196.066 250.17 162.85 Q 237.137 196.883 234.18 209 Q 231.223 221.117 228 255.83 Q 232.167 227.379 235.81 210.82 Z " fill-rule="evenodd" fill="rgb(57,131,174)"/></g></svg>