<?xml version="1.0" encoding="UTF-8" standalone="no"?>
<!DOCTYPE svg PUBLIC "-//W3C//DTD SVG 1.1//EN" "http://www.w3.org/Graphics/SVG/1.1/DTD/svg11.dtd">
<svg version="1.1" xmlns="http://www.w3.org/2000/svg" xmlns:xlink="http://www.w3.org/1999/xlink" preserveAspectRatio="xMidYMid meet" viewBox="20.564114872961003 4.396901110868879 881.1025517937056 255.9364322224645" width="877.1" height="251.94"><defs><path d="M152.93 36.67C129.2 42.8 125.87 43.73 107.33 49.33C84.67 56.13 78.93 58 50.27 68.4C32 74.93 27.6 77.07 26.67 79.47C26 81.2 24.4 89.6 23.2 98.27C20.53 117.87 21.2 158.67 24.67 176C24.81 176.76 25.52 180.53 26.8 187.33C39.76 192.05 46.96 194.68 48.4 195.2C131.73 225.87 216.93 245.47 306.13 254.67C328.13 256.93 341.6 257.33 396.53 257.33C451.87 257.33 464.67 256.93 486 254.67C544.13 248.4 593.47 238.53 655.07 220.8C703.33 206.8 731.73 196.67 850 151.73C896.8 134 898.67 133.2 898.67 131.87C898.67 131.2 897.07 130 895.07 129.2C888.4 126.53 878.27 122.67 866 118C859.47 115.6 841.07 108.67 825.33 102.67C716.93 61.6 714.8 60.8 677.33 49.6C657.07 43.47 649.33 41.33 625.33 34.53C594.13 25.87 533.33 14.4 498.67 10.53C454.27 5.73 379.47 3.87 339.33 6.8C275.07 11.33 210.13 21.73 152.93 36.67ZM557.33 29.47C574.93 32.53 616.53 41.73 629.33 45.2C653.33 52 661.07 54.13 681.33 60.27C711.2 69.2 726.13 74.27 761.33 87.6C777.87 93.87 804.8 104 821.33 110.27C837.87 116.4 854.93 122.93 859.33 124.67C863.73 126.4 869.2 128.53 871.33 129.33C876 131.2 887.07 126.67 780.93 166.53C704 195.47 686.4 201.6 643.47 214C581.33 231.87 532.27 241.73 474 248C452.67 250.27 439.87 250.67 384.53 250.67C329.6 250.67 316.13 250.27 294.13 248C233.2 241.73 178.93 231.47 114.67 214C97.2 209.33 43.07 191.6 33.2 187.47C27.07 184.93 26.8 184 25.87 150.67C25.07 125.2 27.07 99.47 30.67 90.13C31.6 87.73 36 85.6 54.27 79.07C82.93 68.67 88.67 66.8 111.33 60C129.87 54.4 133.2 53.47 156.93 47.33C214.13 32.4 279.07 22 343.33 17.47C368.8 15.6 436.4 15.87 464 18C503.6 20.8 521.2 23.07 557.33 29.47Z" id="bfpc70tup"></path><clipPath id="clipj1GGI5eqt"><use xlink:href="#bfpc70tup" opacity="1"></use></clipPath></defs><g><g><use xlink:href="#bfpc70tup" opacity="1" fill="#303538" fill-opacity="1"></use><g clip-path="url(#clipj1GGI5eqt)"><use xlink:href="#bfpc70tup" opacity="1" fill-opacity="0" stroke="#22272e" stroke-width="2" stroke-opacity="1"></use></g></g></g></svg>